<svg width="313" height="209" viewBox="0 0 313 209" fill="none" xmlns="http://www.w3.org/2000/svg">
<path d="M117.41 6.47227C113.689 4.58708 109.213 3.78577 105.318 5.27886C101.571 6.71543 98.832 10.0939 97.2641 13.7882C95.6966 17.4827 95.1474 21.5158 94.6132 25.4934C94.4005 27.0776 94.3873 29.0766 95.8048 29.8162C96.3215 30.0242 96.8891 30.0708 97.4328 29.9498C97.9766 29.8289 98.4709 29.5461 98.8507 29.1387C99.5941 28.3106 100.197 27.3662 100.634 26.3431C102.862 22.191 106.157 18.7075 110.178 16.2512C114.2 13.7949 118.803 12.4545 123.514 12.3679L127.303 14.0645C124.243 11.2295 121.131 8.35743 117.41 6.47227Z" fill="#FF6582"/>
<path d="M158.414 39.5197C155.474 34.657 151.99 29.465 146.534 27.8772C140.216 26.0384 133.725 29.6912 128.219 33.2958C111.754 44.076 95.898 55.7586 80.7234 68.2902L80.74 68.4789C92.554 67.6642 104.368 66.8495 116.182 66.0348C124.718 65.4461 133.547 64.7763 141.09 60.7384C143.952 59.2062 146.742 57.1595 149.986 57.0169C154.016 56.8397 157.529 59.6541 160.291 62.5945C176.625 79.9879 181.351 106.587 199.676 121.868C188.121 93.3709 174.324 65.8351 158.414 39.5197V39.5197Z" fill="white"/>
<path d="M43.5553 157.295C52.1109 157.529 60.6413 158.333 69.0897 159.704C94.5002 163.838 118.863 172.878 140.82 186.32C148.122 190.789 155.117 195.739 161.76 201.139C162.574 201.802 163.383 202.472 164.187 203.148C164.703 203.583 165.452 202.84 164.932 202.403C158.338 196.856 151.382 191.755 144.11 187.131C136.846 182.516 129.289 178.38 121.486 174.75C113.672 171.112 105.632 167.98 97.4157 165.376C89.2117 162.775 80.847 160.711 72.3746 159.199C63.9237 157.688 55.382 156.738 46.8056 156.356C45.7225 156.309 44.6391 156.27 43.5553 156.241C43.4187 156.246 43.2893 156.304 43.1943 156.402C43.0994 156.5 43.0463 156.632 43.0463 156.768C43.0463 156.905 43.0994 157.036 43.1943 157.135C43.2893 157.233 43.4187 157.291 43.5553 157.295V157.295Z" fill="#111111"/>
<path d="M41.5333 123.97C56.8485 125.041 72.1695 126.13 87.424 127.891C102.717 129.543 117.882 132.214 132.819 135.888C146.025 139.157 158.88 143.711 171.199 149.485C182.737 154.901 193.593 161.664 203.541 169.633C213.365 177.496 221.946 186.795 228.998 197.216C229.877 198.533 230.728 199.868 231.552 201.221C231.904 201.799 232.817 201.27 232.462 200.689C225.808 189.897 217.529 180.197 207.917 171.931C198.23 163.612 187.568 156.502 176.165 150.758C164.283 144.769 151.837 139.975 139.008 136.447C124.137 132.407 108.992 129.45 93.6935 127.601C78.2829 125.62 62.786 124.419 47.2916 123.321C45.3723 123.184 43.4529 123.049 41.5334 122.916C40.8562 122.868 40.8592 123.923 41.5334 123.97L41.5333 123.97Z" fill="#111111"/>
<path d="M40.0027 127.541C55.3179 128.613 70.6389 129.702 85.8934 131.463C101.186 133.114 116.352 135.786 131.289 139.459C144.495 142.729 157.349 147.283 169.668 153.056C181.206 158.473 192.063 165.236 202.011 173.204C211.834 181.067 220.416 190.366 227.467 200.787C228.346 202.104 229.198 203.439 230.021 204.792C230.374 205.371 231.286 204.842 230.931 204.26C224.277 193.469 215.998 183.769 206.386 175.502C196.7 167.183 186.038 160.073 174.634 154.33C162.753 148.341 150.306 143.547 137.477 140.018C122.606 135.978 107.462 133.022 92.1628 131.173C76.7522 129.192 61.2553 127.991 45.761 126.892C43.8416 126.756 41.9222 126.621 40.0027 126.487C39.3255 126.44 39.3285 127.494 40.0027 127.541L40.0027 127.541Z" fill="#111111"/>
<path d="M259.871 188.805C258.065 186.524 256.271 184.233 254.491 181.931C239.983 163.167 226.347 143.77 213.583 123.739C204.913 110.135 196.673 96.2699 188.863 82.1432C185.145 75.4272 181.528 68.6586 178.014 61.8371C175.287 56.548 172.621 51.2272 170.015 45.8748C169.27 44.346 168.546 42.8103 167.826 41.271C166.128 37.6511 164.463 34.0138 162.674 30.4431C160.635 26.3735 158.154 22.107 154.411 19.3728C152.708 18.0774 150.671 17.2936 148.539 17.1131C145.492 16.9163 142.68 18.1744 140.038 19.5485C120.682 29.7236 102.616 42.182 86.2254 56.6569C69.81 71.0736 55.1372 87.361 42.5064 105.187C42.1199 105.739 41.2061 105.212 41.5962 104.656C43.132 102.485 44.6983 100.336 46.295 98.211C66.1487 71.8061 90.4924 49.0992 118.213 31.1285C122.877 28.1061 127.628 25.2255 132.468 22.4866C134.907 21.1055 137.356 19.7419 139.848 18.4627C142.29 17.208 144.884 16.0799 147.674 16.0377C157.17 15.8902 162.087 26.6441 165.464 33.8803C166.526 36.1576 167.6 38.4279 168.687 40.6911C172.795 49.2838 177.062 57.798 181.486 66.2337C184.217 71.442 187.007 76.6199 189.858 81.7673C198.728 97.7964 208.156 113.501 218.141 128.881C231.37 149.254 245.528 168.98 260.616 188.06C261.031 188.587 260.289 189.339 259.871 188.805Z" fill="#111111"/>
<path d="M206.26 101.531L220.408 96.3566L227.432 93.7874C229.702 92.8737 232.017 92.0765 234.367 91.3989C236.423 90.8119 238.605 90.8397 240.644 91.4789C242.463 92.1521 244.128 93.1842 245.54 94.5138C246.983 95.8423 248.325 97.2757 249.556 98.8023C251.085 100.64 252.592 102.497 254.106 104.348C260.352 111.988 266.558 119.66 272.723 127.366C278.887 135.071 285.011 142.81 291.093 150.581C297.19 158.371 303.246 166.193 309.259 174.048C309.996 175.011 310.732 175.973 311.467 176.937C311.873 177.469 312.789 176.944 312.377 176.404C306.32 168.47 300.22 160.569 294.078 152.699C287.92 144.812 281.721 136.957 275.478 129.136C269.236 121.315 262.952 113.528 256.625 105.775C255.049 103.843 253.47 101.914 251.889 99.9867C250.555 98.361 249.236 96.7177 247.773 95.2046C245.088 92.4271 241.732 89.9725 237.716 89.9059C235.363 89.9883 233.046 90.4979 230.875 91.4098C228.51 92.2655 226.151 93.1371 223.788 94.0011L209.542 99.2119L205.98 100.515C205.348 100.746 205.621 101.765 206.26 101.531H206.26Z" fill="#111111"/>
<path d="M135.88 14.8562L134.934 15.321C132.477 10.3074 128.44 6.23967 123.446 3.74326C118.452 1.24685 112.775 0.459931 107.29 1.50347C101.805 2.54701 96.8146 5.36324 93.0858 9.51921C89.357 13.6752 87.0964 18.9408 86.6515 24.5066C86.1771 30.1934 87.6452 35.873 90.816 40.6175L89.9376 41.2008C86.6354 36.2598 85.1064 30.345 85.6005 24.4227C86.0637 18.6267 88.4177 13.1432 92.3007 8.81526C96.1836 4.48732 101.381 1.55451 107.093 0.467701C112.805 -0.619112 118.716 0.20024 123.917 2.79979C129.118 5.39934 133.321 9.63517 135.88 14.8561L135.88 14.8562Z" fill="#FF6582"/>
<path d="M66.6791 43.1896C63.0437 41.3983 58.997 40.6066 54.9545 40.8957C50.9119 41.1847 47.0191 42.5443 43.6756 44.8347C56.2774 47.0088 68.7413 49.9178 81.0036 53.5469C75.9116 50.5628 71.9284 45.8875 66.6791 43.1896Z" fill="white"/>
<path d="M43.6048 44.822L42.2207 45.947C42.6889 45.5532 43.1756 45.184 43.6756 44.8347L43.6048 44.822Z" fill="#111111"/>
<path d="M245.008 101.583C243.615 99.8877 242.109 98.1127 240.026 97.4241L238.081 97.5008C252.886 123.661 272.88 146.519 296.838 164.673L245.008 101.583Z" fill="white"/>
<path d="M85.2869 51.3467C84.7352 50.7317 84.187 50.1167 83.6317 49.5016C79.2528 44.6588 74.5542 39.8722 68.5409 37.0959C65.6738 35.7303 62.5439 35.0048 59.3683 34.9697C56.0917 35.0596 52.8611 35.7641 49.8445 37.0467C48.4106 37.6195 47.0083 38.2697 45.6272 38.962C44.0492 39.7562 42.4993 40.6032 40.9566 41.4572C38.0607 43.0598 35.2023 44.7326 32.3816 46.4758C26.769 49.9445 21.3322 53.6779 16.0712 57.6761C13.344 59.7495 10.673 61.891 8.05834 64.1004C5.62641 66.1527 3.24367 68.2602 0.910137 70.4227C0.411119 70.8831 -0.333988 70.1381 0.165045 69.6777C0.780069 69.1048 1.40211 68.5355 2.02416 67.9732C3.78138 66.3847 5.56673 64.8267 7.38018 63.2991C10.6871 60.5087 14.0796 57.826 17.5578 55.2511C22.9665 51.2447 28.5614 47.5101 34.3424 44.0473C37.2313 42.3182 40.16 40.6618 43.1284 39.0779C44.0247 38.6 44.9314 38.1326 45.8486 37.6898C47.9298 36.64 50.0923 35.7597 52.315 35.0575C55.4636 34.0389 58.7949 33.7117 62.0815 34.0981C65.2549 34.5596 68.3122 35.6173 71.0924 37.2153C76.9965 40.5153 81.5757 45.6182 86.032 50.5981C86.4819 51.1042 85.7403 51.8528 85.2869 51.3467Z" fill="#111111"/>
<path d="M11.0453 62.3103H9.51462V12.0812H63.283V13.6118H11.0453V62.3103Z" fill="#2F2E41"/>
<path d="M300.584 62.3103H299.054V13.6118H246.816V12.0812H300.584V62.3103Z" fill="#2F2E41"/>
<path d="M300.584 208.998H246.816V207.467H299.054V158.768H300.584V208.998Z" fill="#2F2E41"/>
<path d="M63.283 208.998H9.51462V158.768H11.0453V207.467H63.283V208.998Z" fill="#2F2E41"/>
</svg>
